<mxfile host="65bd71144e">
    <diagram id="SfofQsomUg7t-HpP2Bk4" name="Страница 1">
        <mxGraphModel dx="1202" dy="1882" grid="1" gridSize="10" guides="1" tooltips="1" connect="1" arrows="1" fold="1" page="1" pageScale="1" pageWidth="827" pageHeight="1169" math="0" shadow="0">
            <root>
                <mxCell id="0"/>
                <mxCell id="1" parent="0"/>
                <mxCell id="19" value="" style="edgeStyle=none;html=1;fontFamily=Verdana;fontSize=14;fontColor=default;" edge="1" parent="1" source="4" target="6">
                    <mxGeometry relative="1" as="geometry"/>
                </mxCell>
                <mxCell id="4" value="START" style="ellipse;whiteSpace=wrap;fontSize=14;fontFamily=Verdana;html=1;" parent="1" vertex="1">
                    <mxGeometry x="330" y="-160" width="180" height="50" as="geometry"/>
                </mxCell>
                <mxCell id="5" value="END" style="ellipse;whiteSpace=wrap;fontFamily=Verdana;html=1;fontSize=14;" parent="1" vertex="1">
                    <mxGeometry x="360" y="386" width="120" height="50" as="geometry"/>
                </mxCell>
                <mxCell id="18" value="" style="edgeStyle=none;html=1;fontFamily=Verdana;fontSize=14;fontColor=default;" edge="1" parent="1" source="6" target="7">
                    <mxGeometry relative="1" as="geometry"/>
                </mxCell>
                <mxCell id="6" value="string[] arrString1&amp;nbsp;&lt;br style=&quot;font-size: 14px&quot;&gt;string[]&amp;nbsp;arrString2&lt;br style=&quot;font-size: 14px&quot;&gt;count = 0&lt;br style=&quot;font-size: 14px&quot;&gt;i =0&lt;br style=&quot;font-size: 14px&quot;&gt;n =3" style="rounded=0;fontSize=14;fontColor=default;whiteSpace=wrap;fontFamily=Verdana;html=1;" parent="1" vertex="1">
                    <mxGeometry x="321.25" y="-80" width="197.5" height="90" as="geometry"/>
                </mxCell>
                <mxCell id="14" value="Yes" style="edgeStyle=none;html=1;entryX=0.5;entryY=0;entryDx=0;entryDy=0;fontFamily=Verdana;fontSize=14;fontColor=default;" edge="1" parent="1" source="7" target="11">
                    <mxGeometry relative="1" as="geometry"/>
                </mxCell>
                <mxCell id="21" style="edgeStyle=none;html=1;fontFamily=Verdana;fontSize=14;fontColor=default;" edge="1" parent="1" source="7" target="5">
                    <mxGeometry relative="1" as="geometry">
                        <Array as="points">
                            <mxPoint x="600" y="90"/>
                            <mxPoint x="600" y="410"/>
                        </Array>
                    </mxGeometry>
                </mxCell>
                <mxCell id="22" value="No" style="edgeLabel;html=1;align=center;verticalAlign=middle;resizable=0;points=[];fontSize=14;fontFamily=Verdana;fontColor=default;" vertex="1" connectable="0" parent="21">
                    <mxGeometry x="-0.8564" relative="1" as="geometry">
                        <mxPoint x="14" y="60" as="offset"/>
                    </mxGeometry>
                </mxCell>
                <mxCell id="7" value="i&amp;lt;arrString1.Length" style="rhombus;whiteSpace=wrap;fontFamily=Verdana;fontSize=14;fontColor=default;html=1;" vertex="1" parent="1">
                    <mxGeometry x="293" y="50" width="254" height="80" as="geometry"/>
                </mxCell>
                <mxCell id="15" value="Yes" style="edgeStyle=none;html=1;fontFamily=Verdana;fontSize=14;fontColor=default;" edge="1" parent="1" source="11" target="12">
                    <mxGeometry relative="1" as="geometry">
                        <Array as="points">
                            <mxPoint x="420" y="270"/>
                        </Array>
                    </mxGeometry>
                </mxCell>
                <mxCell id="16" style="edgeStyle=none;html=1;entryX=0;entryY=0.5;entryDx=0;entryDy=0;fontFamily=Verdana;fontSize=14;fontColor=default;exitX=0;exitY=0.5;exitDx=0;exitDy=0;" edge="1" parent="1" source="11" target="7">
                    <mxGeometry relative="1" as="geometry">
                        <Array as="points">
                            <mxPoint x="240" y="210"/>
                            <mxPoint x="240" y="90"/>
                        </Array>
                    </mxGeometry>
                </mxCell>
                <mxCell id="17" value="No" style="edgeLabel;html=1;align=center;verticalAlign=middle;resizable=0;points=[];fontSize=14;fontFamily=Verdana;fontColor=default;" vertex="1" connectable="0" parent="16">
                    <mxGeometry x="-0.2466" relative="1" as="geometry">
                        <mxPoint y="-26" as="offset"/>
                    </mxGeometry>
                </mxCell>
                <mxCell id="11" value="arrString1[i].Length&amp;lt;=n" style="rhombus;whiteSpace=wrap;fontFamily=Verdana;fontSize=14;fontColor=default;html=1;" vertex="1" parent="1">
                    <mxGeometry x="290" y="170" width="260" height="80" as="geometry"/>
                </mxCell>
                <mxCell id="20" style="edgeStyle=none;html=1;fontFamily=Verdana;fontSize=14;fontColor=default;" edge="1" parent="1" source="12">
                    <mxGeometry relative="1" as="geometry">
                        <mxPoint x="420" y="30" as="targetPoint"/>
                        <Array as="points">
                            <mxPoint x="180" y="320"/>
                            <mxPoint x="180" y="30"/>
                        </Array>
                    </mxGeometry>
                </mxCell>
                <mxCell id="12" value="arrString2[count]=arrString1[i]&lt;br&gt;count++&lt;br&gt;i++" style="rounded=0;whiteSpace=wrap;fontFamily=Verdana;fontSize=14;fontColor=default;html=1;align=center;" vertex="1" parent="1">
                    <mxGeometry x="296.25" y="290" width="247.5" height="60" as="geometry"/>
                </mxCell>
            </root>
        </mxGraphModel>
    </diagram>
</mxfile>